<mxfile host="app.diagrams.net" modified="2023-09-15T02:23:23.786Z" agent="Mozilla/5.0 (Macintosh; Intel Mac OS X 10_15_7) AppleWebKit/537.36 (KHTML, like Gecko) Chrome/116.0.0.0 Safari/537.36" version="21.7.5" etag="e-WUCHmmJwcfwyK6UucW" type="github">
  <diagram name="第 1 页" id="O5DA0WgUkWj6eyIi3bCS">
    <mxGraphModel>
      <root>
        <mxCell id="0" />
        <mxCell id="1" parent="0" />
      </root>
    </mxGraphModel>
  </diagram>
</mxfile>
